<svg id="Layer_1" data-name="Layer 1" xmlns="http://www.w3.org/2000/svg" width="524" height="204" viewBox="0 0 524 204"><defs><style>.cls-1{fill:#5b5957;}.cls-2{fill:#edcdc4;}.cls-3{fill:#f8c073;}.cls-4{fill:#c0eabb;}.cls-5{fill:#7c6c55;}</style></defs><title>logo</title><path class="cls-1" d="M114.16,80h1.34V90.81h-1.42a10.33,10.33,0,0,0-3.34-7,10.48,10.48,0,0,0-7.18-2.51,9.64,9.64,0,0,0-6.19,1.88,6.13,6.13,0,0,0-2.35,5,8.17,8.17,0,0,0,2,5.29q1.94,2.38,8.41,6.15,7.53,4.35,10.12,7.61a11.64,11.64,0,0,1,2.59,7.44,12.41,12.41,0,0,1-4,9.25,13.21,13.21,0,0,1-9.54,3.84,26.52,26.52,0,0,1-8.24-1.72,11.67,11.67,0,0,0-2.62-.71c-.78,0-1.39.59-1.82,1.76H90.49V114.71h1.42a10.68,10.68,0,0,0,3.45,8.23,11.52,11.52,0,0,0,8,3.1,10.25,10.25,0,0,0,6.92-2.24,7.46,7.46,0,0,0,2.61-6,8.22,8.22,0,0,0-2.14-5.33q-2.15-2.55-9-6.58a39.83,39.83,0,0,1-7.41-5.24,12.65,12.65,0,0,1-2.75-4.21,13.9,13.9,0,0,1-.89-5,11.13,11.13,0,0,1,3.59-8.59,13.23,13.23,0,0,1,9.32-3.29,22.24,22.24,0,0,1,6.88,1.21,9.54,9.54,0,0,0,2.43.55,1,1,0,0,0,.77-.23A3.42,3.42,0,0,0,114.16,80Z"/><path class="cls-1" d="M127.52,94.57V93.2a9.21,9.21,0,0,0,5.14-8.51,1.62,1.62,0,0,0-.37-1.11,3.29,3.29,0,0,0-1.62-.73,3.88,3.88,0,0,1-2.2-1.18,3.31,3.31,0,0,1-.55-2,3.18,3.18,0,0,1,1-2.43,3.57,3.57,0,0,1,2.57-.94,4.55,4.55,0,0,1,3.68,1.64,6.56,6.56,0,0,1,1.38,4.35A12.75,12.75,0,0,1,134.09,90,12.18,12.18,0,0,1,127.52,94.57Z"/><path class="cls-1" d="M155.68,97.47h1.42v23.94c0,1.57.35,2.61,1.05,3.14a6.79,6.79,0,0,0,3.84.78v1.33H145.93v-1.33c2.34,0,3.85-.25,4.53-.77s1-1.56,1-3.16V103.91q0-2.59-.93-3.42c-.62-.55-2.16-.83-4.61-.83V98.33Zm-1.3-14.7a3.51,3.51,0,0,1,2.53,1,3.28,3.28,0,0,1,1,2.45,3.38,3.38,0,0,1-1.06,2.49,3.44,3.44,0,0,1-2.51,1,3.66,3.66,0,0,1-2.59-1,3.34,3.34,0,0,1-1.09-2.49,3.24,3.24,0,0,1,1.07-2.45A3.73,3.73,0,0,1,154.38,82.77Z"/><path class="cls-1" d="M181.25,125.33H182v1.33H165.63v-1.33h1.5c1.51,0,2.54-.38,3.08-1.14S171,122,171,120V82.46a4.09,4.09,0,0,0-.9-3,4.42,4.42,0,0,0-3.07-.84h-1.9V77.25l10.11-1h1.38v45.06c0,1.54.32,2.6,1,3.16A5.74,5.74,0,0,0,181.25,125.33Z"/><path class="cls-1" d="M217.79,98.33v1.33c-1.91.16-2.87,1-2.87,2.38a7,7,0,0,0,.64,2.57l6.54,15.16,5.75-14.39a9.44,9.44,0,0,0,.89-3.27c0-1.45-1.26-2.26-3.79-2.45V98.33h10.77v1.33a7.38,7.38,0,0,0-3.67,1,7.52,7.52,0,0,0-2,3.09l-9.47,23.51h-1.39L209.83,105a13.68,13.68,0,0,0-2.45-4.28,6.12,6.12,0,0,0-3.75-1V98.33Z"/><path class="cls-1" d="M270.23,112.56a14.05,14.05,0,0,1-4.59,10.71,17.48,17.48,0,0,1-22.94,0,14,14,0,0,1-4.6-10.71,14.18,14.18,0,0,1,4.58-10.8,17.53,17.53,0,0,1,23,0A14.17,14.17,0,0,1,270.23,112.56Zm-6.11,0q0-6.09-2.67-9.82a9,9,0,0,0-14.57-.07q-2.67,3.65-2.67,9.89t2.65,9.77a9.11,9.11,0,0,0,14.61,0Q264.13,118.62,264.12,112.58Z"/><path class="cls-1" d="M303.66,97.47H305v23.86c0,1.57.35,2.63,1,3.18s2,.82,4,.82v1.33l-10.68.55V122h-.16q-4.42,5.56-10.28,5.56a9.26,9.26,0,0,1-9.59-9.57V103.43a3.38,3.38,0,0,0-1.14-3,7.51,7.51,0,0,0-4.08-.79V98.33l9.43-.86H285v20.3a6.21,6.21,0,0,0,1.8,4.7,6.69,6.69,0,0,0,4.84,1.72q4.2,0,7.77-4.66V104.18c0-2-.31-3.2-.93-3.69s-2.22-.77-4.78-.83V98.33Z"/><path class="cls-1" d="M332.83,97.47v8.74h-1.66a8.37,8.37,0,0,0-2.43-5.23A6.79,6.79,0,0,0,323.85,99a5.53,5.53,0,0,0-3.52,1,3.44,3.44,0,0,0-1.34,2.83,4.27,4.27,0,0,0,1.24,3,18.22,18.22,0,0,0,5.36,3.16c3.56,1.56,5.91,3.07,7.06,4.5a8.1,8.1,0,0,1,1.72,5.18,8.25,8.25,0,0,1-2.75,6.17,9.16,9.16,0,0,1-6.52,2.6,13.85,13.85,0,0,1-5.14-1.37,8,8,0,0,0-2.3-.74,1.71,1.71,0,0,0-1.3.55,2.25,2.25,0,0,0-.61,1.37h-1.41v-9.68h1.41a10.4,10.4,0,0,0,3.4,6.06,9,9,0,0,0,6,2.25,5,5,0,0,0,3.66-1.42,4.61,4.61,0,0,0,1.48-3.49,4.93,4.93,0,0,0-1.36-3.47c-.91-1-2.87-2.12-5.89-3.4-3.4-1.44-5.63-2.79-6.71-4a6.73,6.73,0,0,1-1.62-4.55,7.53,7.53,0,0,1,2.65-5.74,9,9,0,0,1,6.3-2.41,10.15,10.15,0,0,1,3.68.78,6.63,6.63,0,0,0,2.3.55,1.84,1.84,0,0,0,1.74-1.33Z"/><path class="cls-1" d="M367.22,97.47v4.78a20.66,20.66,0,0,1,5.09-3.7,11.9,11.9,0,0,1,5.13-1.08,12.17,12.17,0,0,1,9.48,4.21,16.62,16.62,0,0,1-.38,21.53,13.83,13.83,0,0,1-10.44,4.35,15,15,0,0,1-8.88-3.37v18.7c0,1.93.35,3.2,1,3.82s2,.92,3.86.92V149h-15.7v-1.33c2,0,3.39-.28,4.09-.82s1.05-1.6,1.05-3.14V104.09c0-1.9-.3-3.12-.89-3.64s-2-.79-4.25-.79V98.33l9.39-.86Zm0,6.9v17.79a11,11,0,0,0,8.12,3.52,7.94,7.94,0,0,0,6.59-3.56,14.42,14.42,0,0,0,2.65-8.86,15.86,15.86,0,0,0-2.65-9.44,8,8,0,0,0-6.76-3.73Q371,100.09,367.22,104.37Z"/><path class="cls-1" d="M411.16,125.33h.78v1.33H395.55v-1.33h1.5c1.51,0,2.53-.38,3.07-1.14s.81-2.17.81-4.23V82.46a4.13,4.13,0,0,0-.89-3,4.45,4.45,0,0,0-3.08-.84h-1.9V77.25l10.12-1h1.38v45.06a4.07,4.07,0,0,0,1,3.16A5.78,5.78,0,0,0,411.16,125.33Z"/><path class="cls-1" d="M424.4,127.56a8.54,8.54,0,0,1-5.91-2.21A6.94,6.94,0,0,1,416,120a6.38,6.38,0,0,1,2.13-4.92q2.12-1.93,8.64-3.7a28.42,28.42,0,0,0,5.5-1.88v-2.12a7,7,0,0,0-1.78-5,6.22,6.22,0,0,0-4.77-1.9,7.58,7.58,0,0,0-4.82,1.64A8.66,8.66,0,0,0,418,106.6l-1.5-.39a10.88,10.88,0,0,1,10.84-8.74,10.72,10.72,0,0,1,7.67,2.76,10,10,0,0,1,2.94,7.66v12.19a11.8,11.8,0,0,0,.34,3.51,1.36,1.36,0,0,0,2.37.39,8.11,8.11,0,0,0,.93-2.21H443a6.58,6.58,0,0,1-1.72,4.23,5.3,5.3,0,0,1-4,1.56q-3.6,0-5-4a15.27,15.27,0,0,1-3.88,3.17A8.71,8.71,0,0,1,424.4,127.56Zm7.89-6.66v-9.64c-.84.34-2.05.77-3.64,1.3q-4.41,1.44-5.65,2.88a5.71,5.71,0,0,0-1.23,3.86,5.5,5.5,0,0,0,1.31,3.66,4,4,0,0,0,3.14,1.55,7,7,0,0,0,3.48-1A6.16,6.16,0,0,0,432.29,120.9Z"/><path class="cls-1" d="M451.77,76.27h2.11L462.35,92h-1.86l-7.95-10.42L444.87,92h-1.66ZM445,126.66v-1.33c2.34,0,3.85-.25,4.53-.77s1-1.56,1-3.16V103.91q0-2.59-.93-3.42c-.62-.55-2.16-.83-4.61-.83V98.33l9.75-.86h1.41v23.94c0,1.57.35,2.61,1.06,3.14a6.79,6.79,0,0,0,3.84.78v1.33Z"/><path class="cls-1" d="M473.89,88.61h1.41v9.56h10.2v2.08H475.3v18.3a6.4,6.4,0,0,0,1.38,4.41,5,5,0,0,0,3.92,1.55,7.3,7.3,0,0,0,5.47-2.74l.93,1q-3.84,4.74-8.86,4.74a8.33,8.33,0,0,1-6.11-2.31,8,8,0,0,1-2.35-6v-19h-5.54V98.88Q470.2,95.94,473.89,88.61Z"/><circle class="cls-2" cx="37" cy="121" r="9"/><circle class="cls-2" cx="59" cy="128" r="9"/><circle class="cls-3" cx="48" cy="147" r="9"/><circle class="cls-4" cx="110" cy="165" r="9"/><circle class="cls-2" cx="100" cy="170" r="9"/><circle class="cls-2" cx="117" cy="147" r="9"/><circle class="cls-3" cx="95" cy="161" r="9"/><circle class="cls-3" cx="100" cy="143" r="9"/><circle class="cls-2" cx="73" cy="96" r="9"/><circle class="cls-4" cx="79" cy="161" r="9"/><circle class="cls-2" cx="81" cy="143" r="9"/><circle class="cls-4" cx="64" cy="143" r="9"/><circle class="cls-4" cx="45" cy="129" r="9"/><circle class="cls-3" cx="73" cy="119" r="9"/><circle class="cls-3" cx="81" cy="174" r="9"/><circle class="cls-3" cx="61" cy="165" r="9"/><circle class="cls-3" cx="127" cy="160" r="9"/><circle class="cls-3" cx="38" cy="109" r="9"/><path class="cls-5" d="M55,109l1.2.64A1.36,1.36,0,0,1,54,109c-3-6.38-11.26-28.07-12.14-30.14a1.51,1.51,0,0,0-.11-.22c-1-1.65-15.89-25.43-15.89-25.43-.51-.94-2.13-2.53-1.15-3.05h0a4.92,4.92,0,0,1,6.7,1.9l12.29,21c.45.85,10.69,28.77,12.3,34.94C56.17,108.67,55.55,108.59,55,109Z"/><path class="cls-5" d="M66.63,94.22l-.38,1.22c-.2.46-8.93-5.68-9.24-5.82l-9-2.89c-.3-.13-1-.11-.85-.58h0c.5-1.15-.9-2.48-.13-2.15l9.61,3.3C56.92,87.44,66.83,93.76,66.63,94.22Z"/><path class="cls-5" d="M69.66,115.36l-.54,1.15c-.25.44-6.53-5.74-6.77-5.88l-7.12-3.07c-.24-.14-.88-.15-.62-.58h0c.63-1.09-.2-2.32.39-2l7.43,3.4C62.67,108.54,69.92,114.92,69.66,115.36Z"/><path class="cls-5" d="M53,105l1,2c.49.12-4.33,6.5-4.4,6.77l-1,7.69c-.07.27.1.88-.39.76h0c-1.22-.31-2.07-1.1-1.91-1.76l1.11-6.15C47.5,114,52.51,104.88,53,105Z"/><path class="cls-5" d="M60.55,122.63l-1.11.62c-.46.2-2-8.47-2.07-8.72l-4-6.66c-.12-.25.16-.66.62-.87l-.79,0c1.15-.51,2.31-.42,2.59.2l2.94,5.52C58.85,113,61,122.43,60.55,122.63Z"/><path class="cls-5" d="M47.68,91.11l1.19.44c.46.22-5.18,7-5.3,7.23l-2.48,7.35c-.12.25-.08.88-.54.66h0c-1.13-.54-1.81-1.48-1.51-2.09l2.3-5.82C41.46,98.63,47.23,90.89,47.68,91.11Z"/><circle class="cls-4" cx="32" cy="94" r="9"/><circle class="cls-2" cx="33" cy="138" r="9"/><circle class="cls-4" cx="50" cy="165" r="9"/><circle class="cls-4" cx="79" cy="134" r="9"/><path class="cls-5" d="M41.7,76.08l1.17.47c.46.22-4.32,5.17-4.41,5.36l-1.69,5.71c-.1.19,0,.71-.45.49h0c-1.14-.54-1.87-1.37-1.65-1.84l1.67-4.49C36.43,81.59,41.24,75.86,41.7,76.08Z"/><circle class="cls-2" cx="473" cy="71" r="9"/><circle class="cls-2" cx="442" cy="28" r="9"/><circle class="cls-3" cx="469" cy="54" r="9"/><circle class="cls-4" cx="405.08" cy="33.69" r="9"/><circle class="cls-2" cx="425" cy="28" r="9"/><circle class="cls-2" cx="396" cy="49" r="9"/><circle class="cls-3" cx="420" cy="40" r="9"/><circle class="cls-3" cx="416.28" cy="55.1" r="9"/><circle class="cls-4" cx="437" cy="47" r="9"/><circle class="cls-2" cx="454" cy="47" r="9"/><circle class="cls-4" cx="456" cy="64" r="9"/><circle class="cls-4" cx="482" cy="60" r="9"/><circle class="cls-3" cx="439" cy="60" r="9"/><circle class="cls-3" cx="459" cy="34" r="9"/><circle class="cls-3" cx="487" cy="46" r="9"/><path class="cls-5" d="M487.27,74.83l2,.86c-1.37.64-1.73-.69-1.37,0,2.34,4.5,10.65,18.07,11.5,19.44a.33.33,0,0,1,.07.17L505,116.93c.29.72,0,2.67,1.4,1.89h0c3.44-1.95,2.77-4.17,2.05-6L504.3,95.93c-.26-.64-11.72-18.63-15.24-21.77C488.68,73.82,488.15,74.42,487.27,74.83Z"/><circle class="cls-2" cx="496" cy="65" r="9"/><circle class="cls-4" cx="474" cy="36" r="9"/><path class="cls-5" d="M474.23,70.62l-.52,1.19c-.16.5,8.5,2.12,8.76,2.24l6.87,4.29c.26.13.64-.17.81-.66l0,.84c.41-1.23-1.69-4.17-2.33-4.47l-3.76-1.47C483.83,72.46,474.39,70.13,474.23,70.62Z"/><path class="cls-5" d="M490.6,79c1.37,1.63,2.75,1.63.55-1L489,71.78c-.11-.26-5.34-8.39-5.74-8.15l-1,.49c-.4.23,4.71,7.32,4.81,7.58L490.6,79"/><path class="cls-5" d="M496,85c.5,2.19,1.69,2.93.93-.63l.76-6.59c0-.29-1.06-10.32-1.51-10.33l-1.12-.13c-.44,0,1,9,.95,9.33V85"/></svg>
