<svg id="Layer_1" data-name="Layer 1" xmlns="http://www.w3.org/2000/svg" width="159" height="231" viewBox="0 0 159 231"><defs><style>.cls-1{fill:#a8cca3;}.cls-2{fill:#edcdc4;}.cls-3{fill:#f8c073;}.cls-4{fill:#c0eabb;}.cls-5{fill:#7c6c55;}</style></defs><title>tree</title><circle class="cls-1" cx="65" cy="113" r="14"/><path class="cls-1" d="M56,115l-1-2.51a6.68,6.68,0,0,0,1.16-9.36L72,101c-2.13-2.74-20.68-6.53-27.83-1.94a1.65,1.65,0,0,0-.59,2.11L45,104c-5,1-5.39,4-3.13,6.87L45,113C42,118,53.1,117.26,56,115Z"/><path class="cls-1" d="M55.16,131.16l1.58,1.58a1.56,1.56,0,0,0,2.46-.33C61,129.05,67.45,121.86,66,120l-8.42-4.14c-1.55-2-6.8-2.5-9.59-1.41a1.57,1.57,0,0,0-1,1.46v2.37a1.51,1.51,0,0,1-.47,1.12c-1.83,1.65-3.13,4.21-2,6.06a1.63,1.63,0,0,0,.95.67l2.91.72a1.64,1.64,0,0,1,1,.72c1.24,2.07,1.72,5.18,3.66,3.5A1.55,1.55,0,0,1,55.16,131.16Z"/><path class="cls-1" d="M70,132l2-4c.38-1.69,9,4,8-2l-1-15c-1.44-.22-15.31,2.83-15.78,4.21l-3.41,9.91a3,3,0,0,0,1.86,3.82L59,127C60.7,127.58,69.61,133.75,70,132Z"/><circle class="cls-1" cx="98" cy="93" r="14"/><path class="cls-1" d="M89,95l-1-2.51a6.68,6.68,0,0,0,1.16-9.36L105,81c-2.13-2.74-20.68-6.53-27.83-1.94a1.65,1.65,0,0,0-.59,2.11L78,84c-5,1-5.39,4-3.13,6.87L78,93C75,98,86.1,97.26,89,95Z"/><path class="cls-1" d="M88.16,111.16l1.58,1.58a1.56,1.56,0,0,0,2.46-.33C94,109.05,100.45,101.86,99,100l-8.42-4.14c-1.55-2-6.8-2.5-9.59-1.41a1.57,1.57,0,0,0-1,1.46v2.37a1.51,1.51,0,0,1-.47,1.12c-1.83,1.65-3.13,4.21-2,6.06a1.63,1.63,0,0,0,1,.67l2.91.72a1.64,1.64,0,0,1,1,.72c1.24,2.07,1.72,5.18,3.66,3.5A1.55,1.55,0,0,1,88.16,111.16Z"/><path class="cls-1" d="M103,112l2-4c.38-1.69,9,4,8-2l-1-15c-1.44-.22-15.31,2.83-15.78,4.21l-3.41,9.91a3,3,0,0,0,1.86,3.82L92,107C93.7,107.58,102.61,113.75,103,112Z"/><circle class="cls-1" cx="69" cy="86" r="14"/><path class="cls-1" d="M60,88l-1-2.51a6.68,6.68,0,0,0,1.16-9.36L76,74c-2.13-2.74-20.68-6.53-27.83-1.94a1.65,1.65,0,0,0-.59,2.11L49,77c-5,1-5.39,4-3.13,6.87L49,86C46,91,57.1,90.26,60,88Z"/><path class="cls-1" d="M59.16,104.16l1.58,1.58a1.56,1.56,0,0,0,2.46-.33C65,102.05,71.45,94.86,70,93l-8.42-4.14c-1.55-2-6.8-2.5-9.59-1.41a1.57,1.57,0,0,0-1,1.46v2.37a1.51,1.51,0,0,1-.47,1.12c-1.83,1.65-3.13,4.21-2,6.06a1.63,1.63,0,0,0,.95.67l2.91.72a1.64,1.64,0,0,1,1,.72c1.24,2.07,1.72,5.18,3.66,3.5A1.55,1.55,0,0,1,59.16,104.16Z"/><path class="cls-1" d="M74,105l2-4c.38-1.69,9,4,8-2L83,84c-1.44-.22-15.31,2.83-15.78,4.21l-3.41,9.91a3,3,0,0,0,1.86,3.82L63,100C64.7,100.58,73.61,106.75,74,105Z"/><circle class="cls-1" cx="37" cy="78" r="14"/><path class="cls-1" d="M28,80l-1-2.51a6.68,6.68,0,0,0,1.16-9.36L44,66c-2.13-2.74-20.68-6.53-27.83-1.94a1.65,1.65,0,0,0-.59,2.11L17,69c-5,1-5.39,4-3.13,6.87L17,78C14,83,25.1,82.26,28,80Z"/><path class="cls-1" d="M27.16,96.16l1.58,1.58a1.56,1.56,0,0,0,2.46-.33C33,94.05,39.45,86.86,38,85l-8.42-4.14c-1.55-2-6.8-2.5-9.59-1.41a1.57,1.57,0,0,0-1,1.46v2.37a1.51,1.51,0,0,1-.47,1.12c-1.83,1.65-3.13,4.21-2,6.06a1.63,1.63,0,0,0,1,.67l2.91.72a1.64,1.64,0,0,1,1,.72c1.24,2.07,1.72,5.18,3.66,3.5A1.55,1.55,0,0,1,27.16,96.16Z"/><path class="cls-1" d="M42,97l2-4c.38-1.69,9,4,8-2L51,76c-1.44-.22-15.31,2.83-15.78,4.21l-3.41,9.91a3,3,0,0,0,1.86,3.82L31,92C32.7,92.58,41.61,98.75,42,97Z"/><circle class="cls-1" cx="126.14" cy="101.97" r="14"/><path class="cls-1" d="M124.78,111.09l-2.71.07a6.66,6.66,0,0,0-8.32-4.43l3.68-15.59c-3.31,1-13.49,17-11.76,25.3a1.63,1.63,0,0,0,1.76,1.3l3.15-.31c-.86,5,1.77,6.45,5.29,5.38l3.11-2.16C122.58,125.24,125.86,114.62,124.78,111.09Z"/><path class="cls-1" d="M139.57,117.66l2-.91a1.56,1.56,0,0,0,.57-2.42c-2.48-2.9-6.9-11.47-9.15-10.79l-6.88,6.39c-2.4.73-4.77,5.45-4.74,8.45a1.59,1.59,0,0,0,1,1.45l2.21.84a1.49,1.49,0,0,1,.87.85c.89,2.29,2.82,4.42,5,4a1.51,1.51,0,0,0,1-.64l1.72-2.46a1.57,1.57,0,0,1,1-.64c2.38-.43,5.45.24,4.57-2.17A1.56,1.56,0,0,1,139.57,117.66Z"/><path class="cls-1" d="M145.67,104.1l-3-3.3c-1.45-1,6.95-7,1-8.18l-14.36-4.43c-.73,1.26-2.83,15.3-1.72,16.24l8,6.73a3,3,0,0,0,4.23-.38l-2.77,1.81C138.21,111.21,147.16,105.09,145.67,104.1Z"/><circle class="cls-1" cx="51" cy="52" r="14"/><path class="cls-1" d="M42,54l-1-2.51a6.68,6.68,0,0,0,1.16-9.36L58,40c-2.13-2.74-20.68-6.53-27.83-1.94a1.65,1.65,0,0,0-.59,2.11L31,43c-5,1-5.39,4-3.13,6.87L31,52C28,57,39.1,56.26,42,54Z"/><path class="cls-1" d="M41.16,70.16l1.58,1.58a1.56,1.56,0,0,0,2.46-.33C47,68.05,53.45,60.86,52,59l-8.42-4.14c-1.55-2-6.8-2.5-9.59-1.41a1.57,1.57,0,0,0-1,1.46v2.37a1.51,1.51,0,0,1-.47,1.12c-1.83,1.65-3.13,4.21-2,6.06a1.63,1.63,0,0,0,1,.67l2.91.72a1.64,1.64,0,0,1,1,.72c1.24,2.07,1.72,5.18,3.66,3.5A1.55,1.55,0,0,1,41.16,70.16Z"/><path class="cls-1" d="M56,71l2-4c.38-1.69,9,4,8-2L65,50c-1.44-.22-15.31,2.83-15.78,4.21l-3.41,9.91a3,3,0,0,0,1.86,3.82L45,66C46.7,66.58,55.61,72.75,56,71Z"/><circle class="cls-2" cx="113.88" cy="112.95" r="3.83"/><circle class="cls-2" cx="122.93" cy="133.61" r="3.83"/><circle class="cls-3" cx="119.25" cy="118.09" r="3.83"/><circle class="cls-4" cx="112.85" cy="145.91" r="3.83"/><circle class="cls-2" cx="119.25" cy="139.84" r="3.83"/><circle class="cls-2" cx="105.28" cy="145.92" r="3.83"/><circle class="cls-3" cx="113.77" cy="139.08" r="3.83"/><circle class="cls-3" cx="107.43" cy="137.17" r="3.83"/><circle class="cls-4" cx="114.89" cy="131.33" r="3.83"/><circle class="cls-2" cx="118.56" cy="125.11" r="3.83"/><circle class="cls-4" cx="112.77" cy="120.69" r="3.83"/><circle class="cls-4" cx="119.86" cy="112.03" r="3.83"/><circle class="cls-3" cx="110.56" cy="127.79" r="3.83"/><circle class="cls-3" cx="124.41" cy="126.09" r="3.83"/><circle class="cls-3" cx="126.07" cy="113.23" r="3.83"/><path class="cls-5" d="M115.57,106.89l.11-.9c-.54.37-.13.79-.3.51-1.15-1.84-4.32-7.82-4.64-8.42a.16.16,0,0,0,0-.07L104,91.3c-.2-.26-1-.59-.38-.92h0a1.72,1.72,0,0,1,2.62.54l5.31,5.17c.18.23,4.29,8.32,4.68,10.29C116.24,106.6,115.91,106.66,115.57,106.89Z"/><circle class="cls-2" cx="121.06" cy="105.82" r="3.83"/><circle class="cls-4" cx="126.92" cy="120.16" r="3.83"/><path class="cls-5" d="M114.29,112.58l-.55-.07c-.22,0,1.06-3.57,1.07-3.69l-.08-3.44c0-.12.2-.2.42-.16l-.31-.19c.54.12,1.17,1.52,1.14,1.82l-.28,1.7C115.69,108.67,114.5,112.63,114.29,112.58Z"/><path class="cls-5" d="M114.77,104.78c-.3-.86,0-1.36.51,0l1.78,2.11a26.92,26.92,0,0,1,1.75,3.87l-.41.28a28.57,28.57,0,0,1-1.74-3.41l-1.89-2.87"/><path class="cls-5" d="M113.73,101.5c-.7-.66-.71-1.25.43-.21l2.58,1.15a31.22,31.22,0,0,1,3.46,2.79l-.2.44a32.15,32.15,0,0,1-3.21-2.37l-3.06-1.8"/><polygon class="cls-5" points="89 83 81 42 74 224 97 220 93 149 89 83"/><polygon class="cls-5" points="81.91 134.78 89 148 111 112 116 66 113 66 100 114 81.91 134.78"/><line class="cls-5" x1="92" y1="122" x2="73.91" y2="142.78"/><polygon class="cls-5" points="88 101.78 80.91 115 58.91 79 53.91 33 56.91 33 69.91 81 88 101.78"/><circle class="cls-1" cx="51" cy="52" r="14"/><path class="cls-1" d="M42,54l-1-2.51a6.68,6.68,0,0,0,1.16-9.36L58,40c-2.13-2.74-20.68-6.53-27.83-1.94a1.65,1.65,0,0,0-.59,2.11L31,43c-5,1-5.39,4-3.13,6.87L31,52C28,57,39.1,56.26,42,54Z"/><path class="cls-1" d="M41.16,70.16l1.58,1.58a1.56,1.56,0,0,0,2.46-.33C47,68.05,53.45,60.86,52,59l-8.42-4.14c-1.55-2-6.8-2.5-9.59-1.41a1.57,1.57,0,0,0-1,1.46v2.37a1.51,1.51,0,0,1-.47,1.12c-1.83,1.65-3.13,4.21-2,6.06a1.63,1.63,0,0,0,1,.67l2.91.72a1.64,1.64,0,0,1,1,.72c1.24,2.07,1.72,5.18,3.66,3.5A1.55,1.55,0,0,1,41.16,70.16Z"/><path class="cls-1" d="M56,71l2-4c.38-1.69,9,4,8-2L65,50c-1.44-.22-15.31,2.83-15.78,4.21l-3.41,9.91a3,3,0,0,0,1.86,3.82L45,66C46.7,66.58,55.61,72.75,56,71Z"/><circle class="cls-1" cx="120.13" cy="74.96" r="14"/><path class="cls-1" d="M118.92,84.1l-2.71.11a6.66,6.66,0,0,0-8.4-4.29l3.44-15.64C108,65.34,98,81.46,99.9,89.75A1.63,1.63,0,0,0,101.67,91l3.15-.36c-.78,5,1.87,6.42,5.38,5.29l3.07-2.21C116.94,98.28,120.05,87.61,118.92,84.1Z"/><path class="cls-1" d="M133.81,90.43l2-.94a1.56,1.56,0,0,0,.53-2.43c-2.53-2.86-7.08-11.36-9.33-10.64l-6.77,6.5c-2.4.77-4.69,5.53-4.61,8.52a1.57,1.57,0,0,0,1,1.43l2.21.81a1.54,1.54,0,0,1,.9.83c.92,2.28,2.88,4.38,5,3.92a1.58,1.58,0,0,0,1-.66l1.68-2.48a1.55,1.55,0,0,1,1-.67c2.38-.45,5.46.16,4.54-2.23A1.56,1.56,0,0,1,133.81,90.43Z"/><path class="cls-1" d="M139.69,76.78l-3.07-3.25c-1.47-.94,6.84-7.09.86-8.2L123,61.13c-.7,1.27-2.58,15.35-1.45,16.26l8.15,6.6a3,3,0,0,0,4.22-.44l-2.74,1.85C132.35,84,141.2,77.74,139.69,76.78Z"/><circle class="cls-1" cx="78.86" cy="58.62" r="14"/><path class="cls-1" d="M72.81,65.57l-2.32-1.41A6.67,6.67,0,0,0,65.87,56l11.5-11.14c-3.34-.94-20.52,7-23.54,15a1.63,1.63,0,0,0,.78,2l2.82,1.44C54,67,55.44,69.64,59,70.64l3.78-.15C63.33,76.3,71.82,69.12,72.81,65.57Z"/><path class="cls-1" d="M81.72,79.07l2.21.34a1.56,1.56,0,0,0,1.79-1.73c-.53-3.79.37-13.39-1.9-14l-9.23,1.67c-2.42-.68-7,2-8.55,4.56a1.57,1.57,0,0,0,.07,1.76l1.4,1.9a1.54,1.54,0,0,1,.29,1.19c-.49,2.41,0,5.24,2,6a1.57,1.57,0,0,0,1.15,0l2.78-1.15a1.56,1.56,0,0,1,1.2,0c2.23.93,4.47,3.15,5,.65A1.56,1.56,0,0,1,81.72,79.07Z"/><path class="cls-1" d="M94.17,70.94l-.77-4.41c-.7-1.58,9.62-2.12,5.25-6.36L88.94,48.7c-1.29.67-10.63,11.37-10.2,12.76l3.15,10a3,3,0,0,0,3.76,2l-3.3,0C84.06,72.91,94.89,72.58,94.17,70.94Z"/><circle class="cls-1" cx="61" cy="36" r="14"/><path class="cls-1" d="M52,38l-1-2.51a6.68,6.68,0,0,0,1.16-9.36L68,24c-2.13-2.74-20.68-6.53-27.83-1.94a1.65,1.65,0,0,0-.59,2.11L41,27c-5,1-5.39,4-3.13,6.87L41,36C38,41,49.1,40.26,52,38Z"/><path class="cls-1" d="M51.16,54.16l1.58,1.58a1.56,1.56,0,0,0,2.46-.33C57,52.05,63.45,44.86,62,43l-8.42-4.14c-1.55-2-6.8-2.5-9.59-1.41a1.57,1.57,0,0,0-1,1.46v2.37a1.51,1.51,0,0,1-.47,1.12c-1.83,1.65-3.13,4.21-2,6.06a1.63,1.63,0,0,0,.95.67l2.91.72a1.64,1.64,0,0,1,1,.72c1.24,2.07,1.72,5.18,3.66,3.5A1.55,1.55,0,0,1,51.16,54.16Z"/><path class="cls-1" d="M66,55l2-4c.38-1.69,9,4,8-2L75,34c-1.44-.22-15.31,2.83-15.78,4.21l-3.41,9.91a3,3,0,0,0,1.86,3.82L55,50C56.7,50.58,65.61,56.75,66,55Z"/><circle class="cls-1" cx="101" cy="54" r="14"/><path class="cls-1" d="M102.6,63.08l-2.55.92a6.67,6.67,0,0,0-9.3-1.57l-1.43-16c-2.83,2-7.44,20.37-3.16,27.71a1.64,1.64,0,0,0,2.08.68l2.89-1.29c.78,5,3.72,5.57,6.72,3.43l2.27-3C105,77.2,104.74,66.08,102.6,63.08Z"/><path class="cls-1" d="M118.7,64.64l1.65-1.51a1.56,1.56,0,0,0-.22-2.48c-3.27-2-10.17-8.71-12.09-7.34l-4.51,8.23c-2,1.46-2.8,6.69-1.83,9.51a1.57,1.57,0,0,0,1.42,1.06l2.36.11a1.46,1.46,0,0,1,1.1.52c1.56,1.9,4.07,3.3,6,2.23a1.56,1.56,0,0,0,.71-.92l.86-2.87a1.58,1.58,0,0,1,.76-.94c2.12-1.15,5.25-1.49,3.65-3.5A1.56,1.56,0,0,1,118.7,64.64Z"/><path class="cls-1" d="M120.2,49.84l-3.91-2.17c-1.67-.45,4.4-8.82-1.64-8.08l-15,.34c-.29,1.42,2.16,15.41,3.51,16l9.75,3.84a3,3,0,0,0,3.9-1.69l-2.06,2.58C115.38,58.94,121.93,50.31,120.2,49.84Z"/><circle class="cls-1" cx="82" cy="31" r="14"/><path class="cls-1" d="M90.89,28.57,92,31a6.67,6.67,0,0,0-.7,9.4L75.59,43.32c2.26,2.63,21,5.53,27.88.6a1.63,1.63,0,0,0,.49-2.13L102.41,39c5-1.24,5.2-4.22,2.79-7L102,30C104.73,24.9,93.68,26.17,90.89,28.57Z"/><path class="cls-1" d="M91,12.39l-1.66-1.5a1.55,1.55,0,0,0-2.44.45c-1.66,3.44-7.73,10.93-6.2,12.72l8.62,3.73c1.64,1.9,6.91,2.17,9.64.94a1.57,1.57,0,0,0,.92-1.51l-.11-2.36a1.47,1.47,0,0,1,.42-1.14c1.74-1.74,2.91-4.36,1.66-6.15a1.59,1.59,0,0,0-1-.62l-3-.59a1.55,1.55,0,0,1-1-.67c-1.34-2-2-5.09-3.82-3.31A1.56,1.56,0,0,1,91,12.39Z"/><path class="cls-1" d="M76.09,12.26l-1.8,4.1c-.3,1.71-9.19-3.57-7.9,2.38l1.72,14.93c1.45.16,15.16-3.57,15.56-5L86.6,18.64a3,3,0,0,0-2-3.72l2.77,1.81C85.6,16.23,76.39,10.5,76.09,12.26Z"/><circle class="cls-1" cx="132.41" cy="61.74" r="14"/><path class="cls-1" d="M138.15,69l-1.8,2A6.66,6.66,0,0,0,127.43,74L118.56,60.7C117,63.82,121.74,82.15,129,86.57a1.64,1.64,0,0,0,2.15-.39l1.93-2.51c3.09,4,5.92,3.11,7.54-.2l.55-3.74C147,80.23,141.46,70.58,138.15,69Z"/><path class="cls-1" d="M153.05,62.65l.73-2.12a1.56,1.56,0,0,0-1.38-2.07c-3.82-.17-13.09-2.8-14.13-.68l0,9.39c-1.11,2.26.72,7.21,2.93,9.23a1.57,1.57,0,0,0,1.74.25l2.13-1a1.53,1.53,0,0,1,1.22-.07c2.28.92,5.15,1,6.3-.88a1.59,1.59,0,0,0,.19-1.15l-.62-2.93a1.56,1.56,0,0,1,.22-1.19c1.32-2,3.9-3.81,1.54-4.82A1.55,1.55,0,0,1,153.05,62.65Z"/><path class="cls-1" d="M147.31,48.93l-4.47,0c-1.69.41-.35-9.84-5.3-6.31l-13,7.46c.43,1.39,9.25,12.52,10.69,12.35l10.41-1.28a3,3,0,0,0,2.61-3.34L147.63,61C147.41,59.23,149.05,48.51,147.31,48.93Z"/><circle class="cls-1" cx="113.31" cy="34" r="14"/><path class="cls-1" d="M121.79,37.62l-.63,2.64a6.66,6.66,0,0,0-6.39,6.93l-14.14-7.52c.14,3.47,13,17.36,21.48,17.79a1.64,1.64,0,0,0,1.71-1.37l.5-3.12c4.64,2.1,6.69-.08,6.54-3.76l-1.3-3.56C134.91,43.34,125.47,37.47,121.79,37.62Z"/><path class="cls-1" d="M131.89,25l-.36-2.21a1.56,1.56,0,0,0-2.2-1.16c-3.44,1.66-12.85,3.76-12.75,6.12L121,36c.1,2.51,4.06,6,7,6.73a1.58,1.58,0,0,0,1.65-.61L131,40.2a1.51,1.51,0,0,1,1-.64c2.45-.27,5-1.6,5.12-3.77a1.52,1.52,0,0,0-.37-1.1l-1.94-2.29a1.54,1.54,0,0,1-.37-1.14c.19-2.41,1.62-5.22-.94-5A1.55,1.55,0,0,1,131.89,25Z"/><path class="cls-1" d="M120.32,15.64l-4,2.09c-1.29,1.15-5-8.5-7.66-3l-7.93,12.77c1,1,14.09,6.62,15.27,5.78l8.55-6.07A3,3,0,0,0,125.3,23l1,3.14C125.31,24.66,121.65,14.45,120.32,15.64Z"/><circle class="cls-2" cx="49.98" cy="96.32" r="4.05"/><circle class="cls-2" cx="55.19" cy="105.3" r="4.05"/><circle class="cls-3" cx="45.78" cy="108.3" r="4.05"/><circle class="cls-4" cx="60.98" cy="133.05" r="4.05"/><circle class="cls-2" cx="56.14" cy="131.69" r="4.05"/><circle class="cls-2" cx="68.76" cy="129.18" r="4.05"/><circle class="cls-3" cx="57.19" cy="127.18" r="4.05"/><circle class="cls-3" cx="64.3" cy="122.7" r="4.05"/><circle class="cls-2" cx="69.53" cy="98.88" r="4.05"/><circle class="cls-4" cx="51.87" cy="122.34" r="4.05"/><circle class="cls-2" cx="57.98" cy="116.95" r="4.05"/><circle class="cls-4" cx="52.32" cy="111.81" r="4.05"/><circle class="cls-4" cx="50.22" cy="101.4" r="4.05"/><circle class="cls-3" cx="62.57" cy="106.54" r="4.05"/><circle class="cls-3" cx="48.6" cy="127.28" r="4.05"/><circle class="cls-3" cx="44.66" cy="118.23" r="4.05"/><circle class="cls-3" cx="68.15" cy="136.53" r="4.05"/><circle class="cls-3" cx="53.94" cy="92.63" r="4.05"/><path class="cls-5" d="M59.6,97.77l.21.58a.61.61,0,0,1-.54-.88c.93-3,4.74-12.76,5.08-13.71a.43.43,0,0,0,0-.11C64.53,82.79,65,74,65,74c.23,4.62.51.88,1,1h1c1.21.31,1.29.84,1,2l-1.29,5.38c-.11.42-5.14,12.81-6.47,15.36C60.1,98,59.91,97.8,59.6,97.77Z"/><path class="cls-5" d="M68,96.36l-.5.29c-.21.1-1.25-4.59-1.32-4.73L64,88.23c-.06-.14-.31-.36-.11-.45h0c.52-.23.46-1.1.61-.76l2.2,4C66.76,91.17,68.15,96.27,68,96.36Z"/><path class="cls-5" d="M62.56,104.32l-.53.22c-.21.07-.44-3.89-.47-4l-1.44-3.17c0-.12-.25-.32,0-.38h0c.53-.17.63-.84.72-.54l1.45,3.38C62.3,99.93,62.78,104.25,62.56,104.32Z"/><path class="cls-5" d="M60.15,95.83l-.27,1c.12.19-3.41.85-3.52.92L53.71,100c-.1.06-.24.32-.36.13h0c-.31-.47-.36-1-.1-1.16l2.23-1.71C55.58,97.18,60,95.64,60.15,95.83Z"/><path class="cls-5" d="M57.33,104l-.56-.14c-.21-.07,1.91-3.41,1.95-3.53l.68-3.42c0-.12.26-.17.48-.1l-.28-.23c.54.18.9.56.8.85l-.69,2.73C59.67,100.27,57.54,104.06,57.33,104Z"/><path class="cls-5" d="M62.58,89.6l.26.51c.09.21-3.84.75-4,.8l-3,1.69c-.12.05-.29.27-.38.06h0c-.21-.52-.15-1,.13-1.15l2.53-1.24C58.23,90.22,62.49,89.39,62.58,89.6Z"/><circle class="cls-4" cx="56.48" cy="85.82" r="4.05"/><circle class="cls-2" cx="43.51" cy="100.77" r="4.05"/><circle class="cls-4" cx="41" cy="114.9" r="4.05"/><circle class="cls-4" cx="60.03" cy="113.35" r="4.05"/><path class="cls-5" d="M65.13,82.78l.25.52c.09.21-3,.41-3.09.44L60,85.13c-.09,0-.21.24-.3,0h0c-.21-.52-.21-1,0-1.11l1.91-1C61.71,83,65,82.57,65.13,82.78Z"/></svg>
